<svg xmlns="http://www.w3.org/2000/svg" xmlns:xlink="http://www.w3.org/1999/xlink" width="1000" height="1000" viewBox="0 0 1000 1000"><defs><style>.a{fill:url(#a);}.b{fill:url(#b);}.c{fill:url(#c);}.d{fill:rgba(7,60,206,0);stroke:#042172;stroke-width:10px;}.e{stroke:none;}.f{fill:none;}</style><linearGradient id="a" x1="0.271" y1="0.453" x2="0.258" y2="1" gradientUnits="objectBoundingBox"><stop offset="0" stop-color="#073cce"/><stop offset="1" stop-color="#041e67"/></linearGradient><linearGradient id="b" x1="0.5" y1="0.35" x2="0.5" y2="1" gradientUnits="objectBoundingBox"><stop offset="0" stop-color="#f08f0b"/><stop offset="1" stop-color="#9a3500"/></linearGradient><linearGradient id="c" x1="0.5" y1="0.35" x2="0.5" xlink:href="#a"/></defs><g transform="translate(-273 -212)"><path class="a" d="M0,322.525,192.26,0,336.532,240.4,139.413,566.562A499.371,499.371,0,0,1,0,322.525Z" transform="translate(286.491 505.334)"/><path class="b" d="M0,573.687,341.981,0,486.8,241.316,215.014,691.031A499.088,499.088,0,0,1,0,573.687Z" transform="translate(433.445 505.334)"/><path class="c" d="M94.5,706.28A500.15,500.15,0,0,1,0,693.536L413.423,0,602.532,315.113C554.365,532.878,364.2,697.308,134.15,706.28Z" transform="translate(658.675 505.334)"/><g class="d" transform="translate(273 212)"><circle class="e" cx="500" cy="500" r="500"/><circle class="f" cx="500" cy="500" r="495"/></g></g></svg>