<svg xmlns="http://www.w3.org/2000/svg" xmlns:xlink="http://www.w3.org/1999/xlink" width="1000" height="1000" viewBox="0 0 1000 1000">
  <defs>
    <clipPath id="clip-Canvas">
      <rect width="1000" height="1000"/>
    </clipPath>
  </defs>
  <g id="Canvas" clip-path="url(#clip-Canvas)">
    <rect width="1000" height="1000" fill="rgba(0,0,0,0)"/>
    <g id="Group_2" data-name="Group 2" transform="translate(-273 -212)">
      <g id="Intersection_3" data-name="Intersection 3" transform="translate(286.491 505.334)">
        <path d="M 138.3958740234375 558.5786743164062 C 106.6396636962891 527.1638793945312 79.2999267578125 491.6848754882812 57.08003616333008 453.0413208007812 C 33.71897506713867 412.4131469726562 16.31506729125977 368.7854919433594 5.336076736450195 323.3382263183594 L 192.2747650146484 9.740767478942871 L 330.6956787109375 240.3909912109375 L 138.3958740234375 558.5786743164062 Z" stroke="none"/>
        <path d="M 137.4209899902344 550.5250854492188 L 324.8589172363281 240.3819427490234 L 192.2892150878906 19.48145866394043 L 10.67823791503906 324.1413879394531 C 31.70205116271973 409.6116333007812 75.37052154541016 487.5610046386719 137.4209899902344 550.5250854492188 M 139.4131927490234 566.5621948242188 C 71.74594116210938 501.2850036621094 22.43760681152344 417.1091918945312 2.290852899022866e-05 322.5246887207031 L 192.2603607177734 1.407877607562114e-05 L 336.5323486328125 240.4000091552734 L 139.4131927490234 566.5621948242188 Z" stroke="none"/>
      </g>
      <g id="Intersection_2" data-name="Intersection 2" transform="translate(433.445 505.334)">
        <path d="M 212.6638336181641 685.2528686523438 C 174.1138916015625 675.0579833984375 136.83251953125 660.1554565429688 101.7959365844727 640.9312133789062 C 67.47886657714844 622.1016845703125 35.39684295654297 599.1775512695312 6.377212047576904 572.7542114257812 L 341.995361328125 9.740754127502441 L 480.9642639160156 241.3069763183594 L 212.6638336181641 685.2528686523438 Z" stroke="none"/>
        <path d="M 210.3298187255859 679.4482421875 L 475.1275634765625 241.2980499267578 L 342.0096435546875 19.48160362243652 L 12.77216625213623 571.7911987304688 C 69.40217590332031 622.48681640625 137.4066162109375 659.5486450195312 210.3298187255859 679.4482421875 M 215.0136871337891 691.0315551757812 C 133.4526824951172 670.1229248046875 59.91818237304688 629.1433715820312 -1.782226536306553e-05 573.687255859375 L 341.9808959960938 4.707031257566996e-05 L 486.8009948730469 241.3160400390625 L 215.0136871337891 691.0315551757812 Z" stroke="none"/>
      </g>
      <g id="Intersection_1" data-name="Intersection 1" transform="translate(658.675 505.334)">
        <path d="M 134.05224609375 701.2801513671875 L 94.59763336181641 701.2801513671875 C 78.77504730224609 700.6598510742188 62.83522033691406 699.2726440429688 47.22159576416016 697.1568603515625 C 34.04606628417969 695.3715209960938 20.82264137268066 693.0294799804688 7.821017742156982 690.1804809570312 L 413.4374084472656 9.740757942199707 L 597.2167358398438 315.972900390625 C 594.3521728515625 328.6758728027344 590.9472045898438 341.3954772949219 587.0870361328125 353.809326171875 C 583.0684814453125 366.7323303222656 578.4560546875 379.6487731933594 573.377685546875 392.1998596191406 C 568.3402099609375 404.6500549316406 562.71875 417.05078125 556.669677734375 429.0576782226562 C 550.6602172851562 440.9859619140625 544.07958984375 452.8213195800781 537.110595703125 464.2350463867188 C 523.2413940429688 486.949951171875 507.401611328125 508.7249450683594 490.0310363769531 528.9551391601562 C 472.7164916992188 549.1202392578125 453.6376037597656 568.034423828125 433.3244018554688 585.1722412109375 C 412.9377746582031 602.3719482421875 391.0195922851562 618.025390625 368.1785888671875 631.6979370117188 C 356.6983337402344 638.5699462890625 344.7994079589844 645.0492553710938 332.8123168945312 650.9559326171875 C 320.7440490722656 656.902587890625 308.2850646972656 662.417236328125 295.7813110351562 667.3468017578125 C 283.1742248535156 672.317138671875 270.2047729492188 676.8175048828125 257.2333374023438 680.7228393554688 C 244.1364135742188 684.6659545898438 230.7061462402344 688.102294921875 217.3154144287109 690.9363403320312 C 203.7779541015625 693.8013916015625 189.9359588623047 696.1239624023438 176.1739654541016 697.8394165039062 C 162.2773590087891 699.5716552734375 148.1057586669922 700.729248046875 134.05224609375 701.2801513671875 Z" stroke="none"/>
        <path d="M 133.9537353515625 696.2801513671875 C 354.7875061035156 687.5765991210938 542.5223388671875 531.7832641601562 591.8956298828125 316.8230895996094 L 413.4518127441406 19.48148155212402 L 15.6949634552002 686.736572265625 C 41.67443084716797 692.0413818359375 68.20052337646484 695.2479248046875 94.50025939941406 696.2801513671875 L 133.9537353515625 696.2801513671875 M 134.149658203125 706.2801513671875 L 94.50025939941406 706.2801513671875 C 62.11225891113281 705.0169677734375 30.52136039733887 700.6754150390625 6.069336086511612e-05 693.53564453125 L 413.4229736328125 4.516601620707661e-05 L 602.531982421875 315.113037109375 C 554.3645629882812 532.8775634765625 364.2044677734375 697.3081665039062 134.149658203125 706.2801513671875 Z" stroke="none"/>
      </g>
      <g id="Ellipse_2" data-name="Ellipse 2" transform="translate(273 212)" fill="rgba(7,60,206,0)" stroke="#000" stroke-width="10">
        <circle cx="500" cy="500" r="500" stroke="none"/>
        <circle cx="500" cy="500" r="495" fill="none"/>
      </g>
    </g>
  </g>
</svg>
