<svg xmlns="http://www.w3.org/2000/svg" xmlns:xlink="http://www.w3.org/1999/xlink" width="971.44" height="581.08" viewBox="0 0 971.44 581.08">
  <defs>
    <linearGradient id="linear-gradient" y1="0.5" x2="1" y2="0.5" gradientUnits="objectBoundingBox">
      <stop offset="0" stop-color="gray" stop-opacity="0.251"/>
      <stop offset="0.54" stop-color="gray" stop-opacity="0.122"/>
      <stop offset="1" stop-color="gray" stop-opacity="0.102"/>
    </linearGradient>
    <linearGradient id="linear-gradient-2" x1="0.5" y1="1" x2="0.5" y2="0" xlink:href="#linear-gradient"/>
    <linearGradient id="linear-gradient-3" x1="0.5" y1="1" x2="0.5" y2="0" xlink:href="#linear-gradient"/>
  </defs>
  <g id="designer" transform="translate(0 -80.92)">
    <g id="Group_9" data-name="Group 9" opacity="0.7">
      <path id="Path_144" data-name="Path 144" d="M299,604.11a23.58,23.58,0,0,0-9.35-25c-2.06-1.39-4.36-2.45-6.26-4.05-3.17-2.67-5-6.6-6.28-10.53-3.14-9.42-4.13-20-9.63-28.51-5-7.75-14.76-10-23.41-10.79-3.15-.28-6.46-.43-9.34.88-4.82,2.18-7.12,7.87-7.34,13.16s1.16,10.5,1.5,15.78-.6,11.09-4.49,14.67-9.47,4-14.64,4.72a96.94,96.94,0,0,0-19.84,4.93c-5.39,2-11.4,5.51-11.65,11.23-.21,4.68,3.57,8.42,6.41,12.15,5.31,7,8,16.16,6.16,24.73s-8,16.21-9.07,25.05a10.88,10.88,0,0,0,.89,6.62A12.109,12.109,0,0,0,186,662.7c3.33,2.57,7,4.64,10.2,7.43,6.57,5.82,10.13,14.27,12.87,22.61.26.8.5,1.62.75,2.42h-6.46A24,24,0,0,0,179.49,719h0a24,24,0,0,0,23.89,23.89h64.5A24,24,0,0,0,291.77,719h0a24,24,0,0,0-23.89-23.89H250.2c4.18-5.6,8.55-10.86,15-13s14.26-.89,19.32-5.39a15.15,15.15,0,0,0,4.39-8.69,25.87,25.87,0,0,0-2.83-17.18c-2-3.63-5-6.92-5.65-11-.55-3.51.72-7.07,2.44-10.19C287.75,620.79,296.38,613.9,299,604.11Z" transform="translate(-114.28 -119)" fill="url(#linear-gradient)"/>
    </g>
    <path id="Path_145" data-name="Path 145" d="M243.84,530.42c-3-.27-6.15-.41-8.89.84-4.59,2.08-6.78,7.5-7,12.53s1.11,10,1.43,15-.57,10.56-4.28,14-9,3.81-13.94,4.49A92.319,92.319,0,0,0,192.27,582c-5.13,1.87-10.85,5.24-11.09,10.7-.2,4.46,3.4,8,6.11,11.57,5.06,6.64,7.58,15.39,5.86,23.55s-7.58,15.44-8.64,23.86a10.36,10.36,0,0,0,.85,6.3,11.531,11.531,0,0,0,3.19,3.38c3.17,2.45,6.71,4.42,9.71,7.08,6.26,5.54,9.64,13.59,12.26,21.53a174.345,174.345,0,0,1,6,23.87c5.39-3.47,12.36-3.42,18.11-6.24,12.25-6,16.37-23.4,29.3-27.73,6.12-2,13.58-.85,18.4-5.13a14.42,14.42,0,0,0,4.18-8.27,24.64,24.64,0,0,0-2.7-16.36c-1.93-3.46-4.77-6.59-5.38-10.51-.53-3.35.69-6.73,2.32-9.7,4.65-8.45,12.87-15,15.38-24.33a22.46,22.46,0,0,0-8.9-23.81,66.352,66.352,0,0,1-6-3.86c-3-2.54-4.73-6.29-6-10-3-9-3.93-19-9.17-27.15C261.36,533.31,252.08,531.16,243.84,530.42Z" transform="translate(-114.28 -119)" fill="#4db6ac"/>
    <path id="Path_146" data-name="Path 146" d="M243.75,530.73s11.37,152.41-18.2,178.57" transform="translate(-114.28 -119)" fill="none" stroke="#535461" stroke-miterlimit="10" stroke-width="1" opacity="0.6"/>
    <rect id="Rectangle_38" data-name="Rectangle 38" width="106.92" height="45.5" rx="15.2" transform="translate(68.05 573.24)" fill="#ff9e1b"/>
    <path id="Path_147" data-name="Path 147" d="M181.2,589.87s29.08-3.39,64.59,18.21" transform="translate(-114.28 -119)" fill="none" stroke="#535461" stroke-miterlimit="10" stroke-width="1" opacity="0.6"/>
    <path id="Path_148" data-name="Path 148" d="M245.22,626.27s16.16-26.73,50.86-31.84" transform="translate(-114.28 -119)" fill="none" stroke="#535461" stroke-miterlimit="10" stroke-width="1" opacity="0.6"/>
    <path id="Path_149" data-name="Path 149" d="M184,651.86s40.31-6.83,58.83,4.55" transform="translate(-114.28 -119)" fill="none" stroke="#535461" stroke-miterlimit="10" stroke-width="1" opacity="0.6"/>
    <path id="Path_150" data-name="Path 150" d="M240.57,672s21.1-9.57,44.84-1.8" transform="translate(-114.28 -119)" fill="none" stroke="#535461" stroke-miterlimit="10" stroke-width="1" opacity="0.6"/>
    <g id="Group_10" data-name="Group 10" opacity="0.7">
      <path id="Path_151" data-name="Path 151" d="M1009.77,663.18v-16.4h-82V722.6a16,16,0,0,0,16,16h50a16,16,0,0,0,16-16V705.8a21.31,21.31,0,1,0,0-42.62Zm0,34.43V671.38a13.12,13.12,0,1,1,0,26.23Z" transform="translate(-114.28 -119)" fill="url(#linear-gradient-2)"/>
    </g>
    <path id="Path_152" data-name="Path 152" d="M1007.14,665.74a19.46,19.46,0,1,0,19.46,19.46A19.46,19.46,0,0,0,1007.14,665.74Zm0,31.43a12.005,12.005,0,1,1,0,.01Z" transform="translate(-114.28 -119)" fill="#ff9e1b"/>
    <path id="Path_153" data-name="Path 153" d="M1007.14,665.74a19.46,19.46,0,1,0,19.46,19.46A19.46,19.46,0,0,0,1007.14,665.74Zm0,31.43a12.005,12.005,0,1,1,0,.01Z" transform="translate(-114.28 -119)" opacity="0.1"/>
    <path id="Path_154" data-name="Path 154" d="M818,531.78h74.84v74.07a9.75,9.75,0,0,1-9.75,9.75H827.77a9.75,9.75,0,0,1-9.75-9.75V531.78Z" fill="#ff9e1b"/>
    <rect id="Rectangle_39" data-name="Rectangle 39" width="971.44" height="32.93" transform="translate(0 615.6)" fill="#e0e0e0"/>
    <path id="Path_156" data-name="Path 156" d="M603.61,640.72c48.9,0,128.81-14.57,166.8-39.61-4.11-22.48-13.58-58.87-22.55-91.43-11.42-41.47-83.53-70.22-126.54-70.22H579.87c-43.15,0-115.35,28.91-126.63,70.56-8.6,31.74-17.77,66.59-22.34,87.05C470,624.58,552.15,640.72,603.61,640.72Z" transform="translate(-114.28 -119)" fill="#ff9e1b"/>
    <path id="Path_157" data-name="Path 157" d="M449.29,261.31h74.48v59.58a37.24,37.24,0,0,1-37.24,37.24h0a37.24,37.24,0,0,1-37.24-37.24V261.31Z" opacity="0.1"/>
    <path id="Path_158" data-name="Path 158" d="M460,258.55h53.11a10.68,10.68,0,0,1,10.68,10.68v48.9a37.24,37.24,0,0,1-37.24,37.24h0a37.24,37.24,0,0,1-37.24-37.24v-48.9A10.68,10.68,0,0,1,460,258.55Z" fill="#9d6348"/>
    <path id="Path_159" data-name="Path 159" d="M563.71,408.43a107.19,107.19,0,0,0,74.48.21v-9.15H563.71Z" transform="translate(-114.28 -119)" opacity="0.1"/>
    <circle id="Ellipse_64" data-name="Ellipse 64" cx="106.75" cy="106.75" r="106.75" transform="translate(380.06 80.92)" fill="#9d6348"/>
    <ellipse id="Ellipse_65" data-name="Ellipse 65" cx="9.93" cy="18.62" rx="9.93" ry="18.62" transform="translate(370.08 168.95)" fill="#9d6348"/>
    <ellipse id="Ellipse_66" data-name="Ellipse 66" cx="9.93" cy="18.62" rx="9.93" ry="18.62" transform="translate(583.62 168.95)" fill="#9d6348"/>
    <g id="Group_12" data-name="Group 12" opacity="0.7">
      <rect id="Rectangle_40" data-name="Rectangle 40" width="413.12" height="237.89" rx="14.5" transform="translate(279.16 377.7)" fill="url(#linear-gradient-3)"/>
    </g>
    <rect id="Rectangle_41" data-name="Rectangle 41" width="398.16" height="233.5" rx="26.84" transform="translate(286.64 382.09)" fill="#535461"/>
    <circle id="Ellipse_67" data-name="Ellipse 67" cx="13.47" cy="13.47" r="13.47" transform="translate(472.25 485.38)" fill="#fff"/>
    <rect id="Rectangle_42" data-name="Rectangle 42" width="889.11" height="13.47" transform="translate(41.16 648.53)" fill="#e0e0e0"/>
    <rect id="Rectangle_43" data-name="Rectangle 43" width="889.11" height="4.49" transform="translate(41.16 648.53)" opacity="0.1"/>
    <path id="Path_164" data-name="Path 164" d="M993.67,650.78V720a14.59,14.59,0,0,1-14.59,14.59h7.48A14.59,14.59,0,0,0,1001.15,720V650.78Z" transform="translate(-114.28 -119)" opacity="0.1"/>
    <path id="Path_165" data-name="Path 165" d="M947.06,595c-1.26.22-2.69.56-3.31,1.68-1,1.78.8,3.79,2.42,5,3,2.26,6.16,4.48,8.2,7.63s2.68,7.55.45,10.58c-2.91,3.95-9.85,4.79-10.52,9.65-.43,3.12,2.26,5.78,5,7.34,6.74,3.86,15.43,4.89,20.32,10.93,2-4.15,6.54-6.55,11-7.58s9.18-.95,13.75-1.64c1.47-.22,3.13-.67,3.79-2,1.28-2.59-2.36-5.7-1.11-8.3,1-2,3.76-1.83,5.81-2.62,3.34-1.29,4.71-5.59,3.77-9s-3.62-6.15-6.44-8.36c-7.58-6-16.7-9.46-25.93-12-4.29-1.17-9.33-3-13.78-3.19C956.23,592.91,951.32,594.25,947.06,595Z" transform="translate(-114.28 -119)" fill="#eee"/>
    <g id="glass" transform="translate(661.19 -39.01)">
      <path id="Path_169" data-name="Path 169" d="M596.491,323.04c0,4.684-11.053,8.483-24.69,8.483s-24.69-3.8-24.69-8.483,11.053,0,24.69,0S596.491,318.321,596.491,323.04Z" transform="translate(-746.748 -46.063)" fill="#fff"/>
      <ellipse id="Ellipse_68" data-name="Ellipse 68" cx="12.254" cy="12.254" rx="12.254" ry="12.254" transform="translate(-237.88 188.73)" fill="#383f4d"/>
      <ellipse id="Ellipse_69" data-name="Ellipse 69" cx="12.254" cy="12.254" rx="12.254" ry="12.254" transform="translate(-136.06 188.73)" fill="#383f4d"/>
      <ellipse id="Ellipse_70" data-name="Ellipse 70" cx="3.771" cy="3.771" rx="3.771" ry="3.771" transform="translate(-225.626 193.435)" fill="#fff"/>
      <ellipse id="Ellipse_71" data-name="Ellipse 71" cx="3.771" cy="3.771" rx="3.771" ry="3.771" transform="translate(-123.807 193.435)" fill="#fff"/>
      <path id="Path_170" data-name="Path 170" d="M648.64,193.28H609.045A10.146,10.146,0,0,0,598.93,203.4v26.974a10.146,10.146,0,0,0,10.115,10.115H648.64a10.146,10.146,0,0,0,10.115-10.115V203.4A10.146,10.146,0,0,0,648.64,193.28Zm1.683,30.352a10.146,10.146,0,0,1-10.115,10.115H617.453a10.146,10.146,0,0,1-10.115-10.115V210.145a10.146,10.146,0,0,1,10.115-10.115h22.761a10.146,10.146,0,0,1,10.109,10.109Z" transform="translate(-758.242 -15)"/>
      <path id="Path_171" data-name="Path 171" d="M450.37,203.4v26.974a10.146,10.146,0,0,0,10.115,10.115h39.594a10.146,10.146,0,0,0,10.115-10.115V203.4a10.146,10.146,0,0,0-10.115-10.115H460.485A10.146,10.146,0,0,0,450.37,203.4Zm8.432,6.743a10.146,10.146,0,0,1,10.115-10.115h22.761a10.146,10.146,0,0,1,10.115,10.115v13.487a10.146,10.146,0,0,1-10.115,10.115H468.911A10.146,10.146,0,0,1,458.8,223.632Z" transform="translate(-701.59 -15)"/>
      <path id="Path_172" data-name="Path 172" d="M572.452,226.567a25.662,25.662,0,0,0-28,0c-2.339,1.5-5.525,1.813-7.424.068l-2.382-2.382c-1.856-1.72-.81-5.883,2.877-8.284a38.357,38.357,0,0,1,41.815,0c3.712,2.4,4.751,6.57,2.877,8.284l-2.357,2.363C577.983,228.373,574.8,228.064,572.452,226.567Z" transform="translate(-733.385 -21.288)"/>
    </g>
  </g>
</svg>
