<svg xmlns="http://www.w3.org/2000/svg" width="1027.496" height="696.119" viewBox="0 0 1027.496 696.119">
  <g id="ux" transform="translate(0 0.001)">
    <circle id="Ellipse_32" data-name="Ellipse 32" cx="76.752" cy="76.752" r="76.752" transform="translate(619.496 278.95)" fill="#ff9e1b" opacity="0.4"/>
    <rect id="Rectangle_1" data-name="Rectangle 1" width="428" height="116" transform="translate(270 461.902)" fill="#0000c8"/>
    <path id="Path_128" data-name="Path 128" d="M756.839,276.477l-17.09,8.088,15.125-11.31a85.361,85.361,0,0,0-8.258-10.867L672.5,280.81l66.948-25.538a85.333,85.333,0,0,0-9.722-7.41L616.789,266.052a84.639,84.639,0,0,0-18.537,52.82h170a84.592,84.592,0,0,0-11.413-42.4Z" transform="translate(-86.252 -101.971)" fill="#f2f2f2"/>
    <path id="Path_129" data-name="Path 129" d="M770.375,152.166a495.973,495.973,0,0,0-218.123-50.2c-153.83,0-291.362,69.753-382.71,179.349C325.968,247.045,598.319,187.714,770.375,152.166Z" transform="translate(-86.252 -101.971)" fill="#f2f2f2"/>
    <rect id="Rectangle_2" data-name="Rectangle 2" width="1020" height="2" transform="translate(0 693.902)" fill="#2f2e41"/>
    <path id="Path_130" data-name="Path 130" d="M682.117,318.873l-57.864-85.951s87.631,30.593,77.686,85.951Z" transform="translate(-86.252 -101.971)" fill="#0000c8"/>
    <path id="Path_131" data-name="Path 131" d="M684.388,318.873l57.864-85.951s-87.631,30.593-77.686,85.951Z" transform="translate(-86.252 -101.971)" fill="#ff9e1b"/>
    <path id="Path_132" data-name="Path 132" d="M784.752,797.873h-429v-640h429Zm-427-2h425v-636h-425Z" transform="translate(-86.252 -101.971)" fill="#2f2e41"/>
    <rect id="Rectangle_3" data-name="Rectangle 3" width="427" height="2" transform="translate(271 71.083)" fill="#2f2e41"/>
    <circle id="Ellipse_33" data-name="Ellipse 33" cx="4" cy="4" r="4" transform="translate(278 59.902)" fill="#ff9e1b"/>
    <circle id="Ellipse_34" data-name="Ellipse 34" cx="4" cy="4" r="4" transform="translate(289 59.902)" fill="#ff9e1b"/>
    <circle id="Ellipse_35" data-name="Ellipse 35" cx="4" cy="4" r="4" transform="translate(300 59.902)" fill="#ff9e1b"/>
    <rect id="Rectangle_4" data-name="Rectangle 4" width="18" height="10" transform="translate(286 84.902)" fill="#ff9e1b"/>
    <rect id="Rectangle_5" data-name="Rectangle 5" width="88" height="10" transform="translate(286 163.902)" fill="#ff9e1b"/>
    <rect id="Rectangle_6" data-name="Rectangle 6" width="88" height="10" transform="translate(687 94.902) rotate(180)" fill="#f2f2f2"/>
    <rect id="Rectangle_7" data-name="Rectangle 7" width="148" height="6" transform="translate(286 180.902)" fill="#f2f2f2"/>
    <rect id="Rectangle_8" data-name="Rectangle 8" width="140" height="6" transform="translate(286 193.902)" fill="#f2f2f2"/>
    <rect id="Rectangle_9" data-name="Rectangle 9" width="102" height="6" transform="translate(286 206.902)" fill="#f2f2f2"/>
    <rect id="Rectangle_10" data-name="Rectangle 10" width="58" height="6" transform="translate(320 384.902)" fill="#f2f2f2"/>
    <rect id="Rectangle_11" data-name="Rectangle 11" width="54.865" height="6" transform="translate(320 397.902)" fill="#f2f2f2"/>
    <rect id="Rectangle_12" data-name="Rectangle 12" width="39.973" height="6" transform="translate(320 410.902)" fill="#f2f2f2"/>
    <rect id="Rectangle_13" data-name="Rectangle 13" width="58" height="6" transform="translate(455 384.902)" fill="#f2f2f2"/>
    <rect id="Rectangle_14" data-name="Rectangle 14" width="54.865" height="6" transform="translate(455 397.902)" fill="#f2f2f2"/>
    <rect id="Rectangle_15" data-name="Rectangle 15" width="39.973" height="6" transform="translate(455 410.902)" fill="#f2f2f2"/>
    <rect id="Rectangle_16" data-name="Rectangle 16" width="58" height="6" transform="translate(595 384.902)" fill="#f2f2f2"/>
    <rect id="Rectangle_17" data-name="Rectangle 17" width="54.865" height="6" transform="translate(595 397.902)" fill="#f2f2f2"/>
    <rect id="Rectangle_18" data-name="Rectangle 18" width="39.973" height="6" transform="translate(595 410.902)" fill="#f2f2f2"/>
    <rect id="Rectangle_19" data-name="Rectangle 19" width="88" height="10" transform="translate(410 611.902)" fill="#ff9e1b"/>
    <rect id="Rectangle_20" data-name="Rectangle 20" width="148" height="6" transform="translate(410 628.902)" fill="#f2f2f2"/>
    <rect id="Rectangle_21" data-name="Rectangle 21" width="140" height="6" transform="translate(410 641.902)" fill="#f2f2f2"/>
    <rect id="Rectangle_22" data-name="Rectangle 22" width="102" height="6" transform="translate(410 654.902)" fill="#f2f2f2"/>
    <rect id="Rectangle_23" data-name="Rectangle 23" width="348" height="2" transform="translate(312.5 271.902)" fill="#ff9e1b" opacity="0.3"/>
    <rect id="Rectangle_24" data-name="Rectangle 24" width="74" height="66" transform="translate(312 306.902)" fill="#ff9e1b" opacity="0.3"/>
    <rect id="Rectangle_25" data-name="Rectangle 25" width="74" height="66" transform="translate(447 306.902)" fill="#0000c8"/>
    <rect id="Rectangle_26" data-name="Rectangle 26" width="74" height="66" transform="translate(587 306.902)" fill="#0000c8"/>
    <path id="Path_133" data-name="Path 133" d="M560.611,474.6l-.976-.019c.021-1.081.631-26.561,10.662-33.6l.561.8C561.231,448.53,560.615,474.335,560.611,474.6Z" transform="translate(-86.252 -101.971)" fill="#ff9e1b"/>
    <circle id="Ellipse_36" data-name="Ellipse 36" cx="4.881" cy="4.881" r="4.881" transform="translate(484.325 328.917)" fill="#ff9e1b"/>
    <path id="Path_134" data-name="Path 134" d="M574.471,453a15.2,15.2,0,0,1-7.841.339,13.85,13.85,0,0,1,14.24-4.884,15.2,15.2,0,0,1-6.4,4.546Z" transform="translate(-86.252 -101.971)" fill="#ff9e1b"/>
    <path id="Path_135" data-name="Path 135" d="M700.611,474.6l-.976-.019c.021-1.081.631-26.561,10.662-33.6l.561.8C701.231,448.53,700.615,474.335,700.611,474.6Z" transform="translate(-86.252 -101.971)" fill="#ff9e1b"/>
    <circle id="Ellipse_37" data-name="Ellipse 37" cx="4.881" cy="4.881" r="4.881" transform="translate(624.325 328.917)" fill="#ff9e1b"/>
    <path id="Path_136" data-name="Path 136" d="M714.471,453a15.2,15.2,0,0,1-7.841.339,13.85,13.85,0,0,1,14.24-4.884A15.2,15.2,0,0,1,714.471,453Z" transform="translate(-86.252 -101.971)" fill="#ff9e1b"/>
    <rect id="Rectangle_27" data-name="Rectangle 27" width="88" height="10" transform="translate(286 498.902)" fill="#ff9e1b"/>
    <rect id="Rectangle_28" data-name="Rectangle 28" width="148" height="6" transform="translate(286 515.902)" fill="#f2f2f2"/>
    <rect id="Rectangle_29" data-name="Rectangle 29" width="140" height="6" transform="translate(286 528.902)" fill="#f2f2f2"/>
    <rect id="Rectangle_30" data-name="Rectangle 30" width="102" height="6" transform="translate(286 541.902)" fill="#f2f2f2"/>
    <circle id="Ellipse_38" data-name="Ellipse 38" cx="31.248" cy="31.248" r="31.248" transform="translate(580.504 481.454)" fill="#ff9e1b" opacity="0.4"/>
    <circle id="Ellipse_39" data-name="Ellipse 39" cx="21.92" cy="21.92" r="21.92" transform="translate(532 505.706)" fill="#ff9e1b" opacity="0.4"/>
    <circle id="Ellipse_40" data-name="Ellipse 40" cx="79" cy="79" r="79" transform="translate(88.5 503.402)" fill="#0000c8"/>
    <rect id="Rectangle_31" data-name="Rectangle 31" width="24" height="43" transform="translate(131.5 644.402)" fill="#0000c8"/>
    <rect id="Rectangle_32" data-name="Rectangle 32" width="24" height="43" transform="translate(179.5 644.402)" fill="#0000c8"/>
    <ellipse id="Ellipse_41" data-name="Ellipse 41" cx="20" cy="7.5" rx="20" ry="7.5" transform="translate(131.5 680.402)" fill="#0000c8"/>
    <ellipse id="Ellipse_42" data-name="Ellipse 42" cx="20" cy="7.5" rx="20" ry="7.5" transform="translate(179.5 679.402)" fill="#0000c8"/>
    <circle id="Ellipse_43" data-name="Ellipse 43" cx="27" cy="27" r="27" transform="translate(142.5 535.402)" fill="#fff"/>
    <circle id="Ellipse_44" data-name="Ellipse 44" cx="9" cy="9" r="9" transform="translate(160.5 541.402)" fill="#ff9e1b"/>
    <path id="Path_137" data-name="Path 137" d="M177.119,610.9c-6.379-28.568,14.012-57.434,45.544-64.475s62.265,10.41,68.644,38.978-14.519,39.1-46.051,46.145S183.5,639.472,177.119,610.9Z" transform="translate(-86.252 -101.971)" fill="#ff9e1b"/>
    <ellipse id="Ellipse_45" data-name="Ellipse 45" cx="39.5" cy="12.4" rx="39.5" ry="12.4" transform="translate(199.383 525.582) rotate(-65.077)" fill="#0000c8"/>
    <ellipse id="Ellipse_46" data-name="Ellipse 46" cx="12.4" cy="39.5" rx="12.4" ry="39.5" transform="translate(52.84 489.876) rotate(-27.893)" fill="#0000c8"/>
    <ellipse id="Ellipse_47" data-name="Ellipse 47" cx="12.4" cy="39.5" rx="12.4" ry="39.5" transform="translate(794.225 491.258) rotate(-21.078)" fill="#0000c8"/>
    <circle id="Ellipse_48" data-name="Ellipse 48" cx="79" cy="79" r="79" transform="translate(814.19 504.104)" fill="#0000c8"/>
    <rect id="Rectangle_33" data-name="Rectangle 33" width="24" height="43" transform="translate(929.48 687.999) rotate(179.84)" fill="#0000c8"/>
    <rect id="Rectangle_34" data-name="Rectangle 34" width="24" height="43" transform="translate(881.481 688.133) rotate(179.84)" fill="#0000c8"/>
    <ellipse id="Ellipse_49" data-name="Ellipse 49" cx="20" cy="7.5" rx="20" ry="7.5" transform="translate(889.467 681.119) rotate(-0.16)" fill="#0000c8"/>
    <ellipse id="Ellipse_50" data-name="Ellipse 50" cx="20" cy="7.5" rx="20" ry="7.5" transform="translate(841.464 680.253) rotate(-0.16)" fill="#0000c8"/>
    <circle id="Ellipse_51" data-name="Ellipse 51" cx="27" cy="27" r="27" transform="translate(864.134 536.109)" fill="#fff"/>
    <circle id="Ellipse_52" data-name="Ellipse 52" cx="9" cy="9" r="9" transform="translate(882.134 554.109)" fill="#ff9e1b"/>
    <path id="Path_138" data-name="Path 138" d="M1055.868,611.392c6.3-28.585-14.173-57.394-45.724-64.347s-62.236,10.584-68.535,39.17,14.628,39.063,46.18,46.016S1049.569,639.978,1055.868,611.392Z" transform="translate(-86.252 -101.971)" fill="#ff9e1b"/>
    <ellipse id="Ellipse_53" data-name="Ellipse 53" cx="39.5" cy="12.4" rx="39.5" ry="12.4" transform="translate(941.077 552.032) rotate(-25.535)" fill="#0000c8"/>
    <path id="Path_139" data-name="Path 139" d="M1018.326,713.466c.022,7.732-19.844,23.056-41.935,23.118S933.525,714.935,933.5,707.2s20.717,1.442,42.809,1.38S1018.3,705.734,1018.326,713.466Z" transform="translate(-86.252 -101.971)" fill="#fff"/>
    <circle id="Ellipse_54" data-name="Ellipse 54" cx="110.248" cy="110.248" r="110.248" transform="translate(807 358.454)" fill="#ff9e1b" opacity="0.4"/>
    <circle id="Ellipse_55" data-name="Ellipse 55" cx="79" cy="79" r="79" transform="translate(111.405 269.59)" fill="#0000c8"/>
    <rect id="Rectangle_35" data-name="Rectangle 35" width="24" height="43" transform="translate(143.939 403.187) rotate(10.261)" fill="#0000c8"/>
    <rect id="Rectangle_36" data-name="Rectangle 36" width="24" height="43" transform="translate(191.171 411.737) rotate(10.261)" fill="#0000c8"/>
    <ellipse id="Ellipse_56" data-name="Ellipse 56" cx="7.5" cy="20" rx="7.5" ry="20" transform="matrix(0.646, -0.763, 0.763, 0.646, 179.327, 454.301)" fill="#0000c8"/>
    <ellipse id="Ellipse_57" data-name="Ellipse 57" cx="7.5" cy="20" rx="7.5" ry="20" transform="matrix(0.646, -0.763, 0.763, 0.646, 133.079, 445.929)" fill="#0000c8"/>
    <circle id="Ellipse_58" data-name="Ellipse 58" cx="27" cy="27" r="27" transform="translate(168.936 302.266)" fill="#fff"/>
    <circle id="Ellipse_59" data-name="Ellipse 59" cx="9" cy="9" r="9" transform="translate(198.032 310.588)" fill="#ff9e1b"/>
    <path id="Path_140" data-name="Path 140" d="M214.337,364.617c-1.188-29.247,24.019-54.019,56.3-55.331s59.415,21.335,60.6,50.582-21.252,35.892-53.534,37.2S215.525,393.864,214.337,364.617Z" transform="translate(-86.252 -101.971)" fill="#ff9e1b"/>
    <ellipse id="Ellipse_60" data-name="Ellipse 60" cx="39.5" cy="12.4" rx="39.5" ry="12.4" transform="matrix(0.975, -0.223, 0.223, 0.975, 222.077, 330.936)" fill="#0000c8"/>
    <ellipse id="Ellipse_61" data-name="Ellipse 61" cx="39.5" cy="12.4" rx="39.5" ry="12.4" transform="matrix(0.975, -0.223, 0.223, 0.975, 67.003, 356.724)" fill="#0000c8"/>
    <path id="Path_141" data-name="Path 141" d="M254.96,481.694a18,18,0,1,0,35.424,6.413c1.771-9.782-5.792-13.244-15.575-15.014S256.73,471.912,254.96,481.694Z" transform="translate(-86.252 -101.971)" fill="#fff"/>
    <rect id="Rectangle_37" data-name="Rectangle 37" width="74" height="66" transform="translate(305.537 263.166) rotate(16.689)" fill="#0000c8"/>
    <path id="Path_142" data-name="Path 142" d="M399.12,435.948l-.93-.3c.331-1.03,8.232-25.261,19.863-29.127l.308.926C407.2,411.159,399.2,435.7,399.12,435.948Z" transform="translate(-86.252 -101.971)" fill="#ff9e1b"/>
    <circle id="Ellipse_62" data-name="Ellipse 62" cx="4.881" cy="4.881" r="4.881" transform="translate(333.358 296.169)" fill="#ff9e1b"/>
    <path id="Path_143" data-name="Path 143" d="M418.6,419.247a15.2,15.2,0,0,1-7.608-1.928,13.85,13.85,0,0,1,15.043-.589,15.2,15.2,0,0,1-7.434,2.517Z" transform="translate(-86.252 -101.971)" fill="#ff9e1b"/>
  </g>
</svg>
